# xmcd CD database file
#
# Track frame offsets:
#	150
#	11750
#	28960
#	45925
#	64400
#	88163
#	104365
#	122343
#	139133
#	160658
#
# Disc length: 2268 seconds
#
# Revision: 0
# Processed by: cddbd v1.4PL0 Copyright (c) Steve Scherf et al.
# Submitted via: CDex 1.51
#
DISCID=8008da0a
DTITLE=George Gritzbach Blue Bottom - Blue Bottom
DYEAR=1989
DGENRE=Blues
TTITLE0=Blue Bottom
TTITLE1=Sweet Fixation
TTITLE2=The Chase
TTITLE3=Please Just Go
TTITLE4=Queen Bee
TTITLE5=Monkey Man
TTITLE6=Me And You Again Moon
TTITLE7=Look Out In The Morning Blues
TTITLE8=Fat In February
TTITLE9=Rev It Up And Go
EXTD=YEAR: 1989
EXTT0=
EXTT1=
EXTT2=
EXTT3=
EXTT4=
EXTT5=
EXTT6=
EXTT7=
EXTT8=
EXTT9=
PLAYORDER=
